<svg xmlns="http://www.w3.org/2000/svg" viewBox="0 0 355.87 239.58"><defs><style>.cls-1{fill:none;stroke:#000;stroke-miterlimit:10;stroke-width:2px;}</style></defs><title>XBox Controller</title><g id="Layer_2" data-name="Layer 2"><g id="Layer_1-2" data-name="Layer 1"><g id="layer_1-3" data-name="layer 1"><path class="cls-1" d="M41,237.59c23.27-21.9,39.43-46,70.35-60.24H245.74c32,15,48.3,39.88,69.89,61.18,29.72-3.6,42.4-26.71,38.58-68.71-4.71-41.11-20.57-86.43-43.29-134.35A139,139,0,0,0,248.8,15.71C237.18,21.29,223.1,37.36,209,53.18H147.63L120.4,27.34l-9.72-9.22c-8.26-4.91-42.77,2.56-66.82,17.59C31.18,62.77.17,128.25,1,195.94,3.81,221.07,16.86,235.26,41,237.59Z"/><polyline class="cls-1" points="233.16 26.41 224.57 10.29 132.16 10.29"/><path class="cls-1" d="M141.27,107.88c-4-4.83-9.81-5-17.64,0v13.3h-14c-4,5.81-3.49,11.55,0,17.23h14.12l-.17,12.71c6,5.29,11.89,5.53,17.64,0V138.06l12.18.35c5.25-7.07,6-13,0-17.23H141.63Z"/><circle class="cls-1" cx="132.74" cy="130.12" r="29.29"/><circle class="cls-1" cx="89.11" cy="71.74" r="26.16"/><circle class="cls-1" cx="225.57" cy="126.18" r="26.35"/><path class="cls-1" d="M167.57,45.65c1.12-4.63,5.07-9.62,10.64-14.83,5,4.51,8.72,9.39,10.53,14.83Q177.78,53.06,167.57,45.65Z"/><path class="cls-1" d="M166.64,23.46C161.4,28.63,161.36,34.54,165,41a28.6,28.6,0,0,1,8.61-13.76A8.32,8.32,0,0,0,166.64,23.46Z"/><path class="cls-1" d="M170.26,20.15l8.12,3.31,8-3.31A17,17,0,0,0,170.26,20.15Z"/><path class="cls-1" d="M189.46,23.46c5.24,5.17,5.28,11.08,1.59,17.51a28.65,28.65,0,0,0-8.6-13.76A8.27,8.27,0,0,1,189.46,23.46Z"/><circle class="cls-1" cx="152.57" cy="72.53" r="6.5"/><circle class="cls-1" cx="203.86" cy="71.74" r="6.5"/><circle class="cls-1" cx="244.92" cy="73.16" r="12.82"/><path class="cls-1" d="M241,67.24s6.59,10.11,7.06,10.58"/><line class="cls-1" x1="241.04" y1="78.76" x2="248.8" y2="67.24"/><circle class="cls-1" cx="269.39" cy="48.93" r="11.88"/><polyline class="cls-1" points="264.8 43.47 269.74 49.35 273.98 43.47"/><line class="cls-1" x1="269.39" y1="57" x2="269.74" y2="49.35"/><circle class="cls-1" cx="269.39" cy="96.24" r="11.88"/><polyline class="cls-1" points="274.1 102.41 268.86 90 263.74 102.18"/><line class="cls-1" x1="265.1" y1="98.18" x2="272.63" y2="98.18"/><circle class="cls-1" cx="295.16" cy="73" r="12.65"/><path class="cls-1" d="M290.92,79.24v-13h5.76c2.13,1.61,1.65,3.67,0,5.94,2.38,2,2.49,4.35,0,7.06Z"/><line class="cls-1" x1="296.16" y1="72" x2="291.39" y2="72"/><path class="cls-1" d="M304.83,32c-1.93-4.68-3.09-10.51-5.2-12.63S272.22,5.65,256.1,1H242.68a52.31,52.31,0,0,0-18.11,9.29"/><path class="cls-1" d="M52.48,31c1.93-4.68,3.09-10.51,5.2-12.63S85.09,5.65,101.21,1h13.42a52.39,52.39,0,0,1,18.11,9.29L121.58,28.46"/></g></g></g></svg>